# xmcd CD database file
#
# Track frame offsets:
#	150
#	51143
#	78567
#	100672
#	146757
#	169755
#	209810
#	253529
#	291204
#
# Disc length: 4402 seconds
#
# Revision: 0
# Processed by: cddbd v1.5PL3 Copyright (c) Steve Scherf et al.
# Submitted via: CDex 1.51
#
DISCID=85113009
DTITLE=Eric Clapton - 24 Carat Blues Band CD2
DYEAR=1991
DGENRE=Blues
TTITLE0=I Can See You Light On
TTITLE1=Black Cat Bone
TTITLE2=I'm So Glad
TTITLE3=Low Down and Dirty
TTITLE4=Stranger Blues
TTITLE5=Hoochie Coochie Man
TTITLE6=Little By Little
TTITLE7=My Time After A While
TTITLE8=Sweet Home Chicago
EXTD=YEAR: 1991
EXTT0=
EXTT1=
EXTT2=
EXTT3=
EXTT4=
EXTT5=
EXTT6=
EXTT7=
EXTT8=
PLAYORDER=
